# xmcd CD database file
#
# Track frame offsets:
#	150
#	9470
#	20847
#	32627
#	40537
#	50767
#	59975
#	72915
#	82010
#	93857
#	102727
#	115612
#	124690
#	190365
#	265090
#
# Disc length: 4390 seconds
#
# Revision: 0
# Processed by: cddbd v1.5.1PL0 Copyright (c) Steve Scherf et al.
# Submitted via: CDex 1.51
#
DISCID=d211240f
DTITLE=Les Paul - Isle of Golden Dreams, #4
DYEAR=2004
DGENRE=Jazz
TTITLE0=Bye Bye Blues
TTITLE1=Deep In The Blues
TTITLE2=St. Louis Blues
TTITLE3=Mammy's Boogie
TTITLE4=I'm Sitting On The Top Of The World
TTITLE5=Sleep 
TTITLE6=Vaya Con Dios
TTITLE7=Johnny (Is The Boy For Me)
TTITLE8=Kangaroo, The
TTITLE9=Don'Cha Hear Them Blues
TTITLE10=I Really Don't Want To Know
TTITLE11=South
TTITLE12=Episode # 1 The Case Of The Missing Les Paulverizer
TTITLE13=Episode #2 The Gas Guitar
TTITLE14=Episode # 3 The Les Paulverizer
EXTD=YEAR: 2004
EXTT0=
EXTT1=
EXTT2=
EXTT3=
EXTT4=
EXTT5=
EXTT6=
EXTT7=
EXTT8=
EXTT9=
EXTT10=
EXTT11=
EXTT12=
EXTT13=
EXTT14=
PLAYORDER=
